<svg fill-rule="evenodd" clip-rule="evenodd" stroke-linejoin="round" stroke-miterlimit="1.414" xmlns="http://www.w3.org/2000/svg" aria-labelledby="title" viewBox="0 0 32 32" preserveAspectRatio="xMidYMid meet" fill="currentColor" width="48" height="48" title="menu"><title id="title">menu</title><g><path d="M9,10c0,-0.552 0.448,-1 1,-1l12,0c0.552,0 1,0.448 1,1c0,0.552 -0.448,1 -1,1l-12,0c-0.552,0 -1,-0.448 -1,-1Z"></path><path d="M9,15c0,-0.552 0.448,-1 1,-1l12,0c0.552,0 1,0.448 1,1c0,0.552 -0.448,1 -1,1l-12,0c-0.552,0 -1,-0.448 -1,-1Z"></path><path d="M9,20c0,-0.552 0.448,-1 1,-1l12,0c0.552,0 1,0.448 1,1c0,0.552 -0.448,1 -1,1l-12,0c-0.552,0 -1,-0.448 -1,-1Z"></path></g></svg>