<svg fill-rule="evenodd" clip-rule="evenodd" stroke-linejoin="round" stroke-miterlimit="1.414" xmlns="http://www.w3.org/2000/svg" aria-label="slack" viewBox="0 0 32 32" preserveAspectRatio="xMidYMid meet" fill="currentColor" width="48" height="48" title="slack"><g><path d="M 11.4524 22.9048C 20.9961 22.9048 22.9048 20.9961 22.9048 11.4524C 22.9048 1.90873 20.9961 -2.02849e-06 11.4524 0C 1.90872 -5.87002e-06 -6.92945e-06 1.90873 1.91115e-10 11.4524C -2.20542e-05 20.9961 1.90874 22.9048 11.4524 22.9048ZM 8.45242 3.95241C 9.28085 3.95241 9.9524 4.62398 9.9524 5.45241L 9.95241 6.95241L 12.9524 6.95241L 12.9524 5.45241C 12.9524 4.62398 13.624 3.9524 14.4524 3.95241C 15.2808 3.95241 15.9524 4.62398 15.9524 5.45241L 15.9524 6.9524L 17.4524 6.95241C 18.2808 6.95241 18.9524 7.62398 18.9524 8.45241C 18.9524 9.28083 18.2808 9.95241 17.4524 9.95241L 15.9524 9.9524L 15.9524 12.9524L 17.4524 12.9524C 18.2808 12.9524 18.9524 13.624 18.9524 14.4524C 18.9524 15.2808 18.2808 15.9524 17.4524 15.9524L 15.9524 15.9524L 15.9524 17.4524C 15.9524 18.2808 15.2808 18.9524 14.4524 18.9524C 13.624 18.9524 12.9524 18.2808 12.9524 17.4524L 12.9524 15.9524L 9.95242 15.9524L 9.9524 17.4524C 9.95241 18.2808 9.28083 18.9524 8.4524 18.9524C 7.62397 18.9524 6.95242 18.2808 6.95242 17.4524L 6.9524 15.9524L 5.45241 15.9524C 4.62398 15.9524 3.9524 15.2808 3.9524 14.4524C 3.95239 13.624 4.62398 12.9524 5.4524 12.9524L 6.9524 12.9524L 6.9524 9.95241L 5.4524 9.95241C 4.62397 9.95241 3.9524 9.28083 3.95239 8.4524C 3.95242 7.62398 4.62397 6.95241 5.4524 6.95241L 6.9524 6.95241L 6.95241 5.45241C 6.95241 4.62398 7.62399 3.95241 8.45242 3.95241ZM 12.9524 9.95241L 12.9524 12.9524L 9.95242 12.9524L 9.95242 9.95241L 12.9524 9.95241Z" transform="matrix(0.951056 -0.309017 0.309017 0.951056 1.56912 8.6471)"></path></g></svg>